PathFileType	4	(X/Y/Z)	D:\TRACE\spotREDO_2-26-24\spot_Both_Motion_1_4-v60.trc
DataRate	CameraRate	NumFrames	NumMarkers	Units	OrigDataRate	OrigDataStartFrame	OrigNumFrames
100.00	100.00	      24	9	mm	100.00	5251	      7000
Frame#	Time	front left toe			Front right toe			aft left toe			aft right toe			Arm			FL body			FR body			AL Body			AR Body			
		X1	Y1	Z1	X2	Y2	Z2	X3	Y3	Z3	X4	Y4	Z4	X5	Y5	Z5	X6	Y6	Z6	X7	Y7	Z7	X8	Y8	Z8	X9	Y9	Z9	

5251	52.500	-395.97812	-5.83984	-594.40564	-0.42731	-1.63117	-421.10065	-709.82849	17.29860	-44.51679	-331.76852	16.51856	59.63419	-89.61332	668.38220	-813.47083	-223.24164	543.24298	-606.89124	-82.84174	547.52759	-536.33441	-624.14307	560.15790	181.64334	-498.79398	565.53571	246.30937	
5252	52.510	-397.66266	-5.09503	-594.00226	-0.08606	-0.97509	-421.03281	-710.41003	17.64698	-44.22158	-332.17786	16.43170	59.78729	-89.95771	668.29065	-813.17017	-223.12656	543.11084	-606.34656	-83.16367	547.76367	-536.07025	-622.76135	559.83148	183.08502	-497.54306	565.13440	247.59711	
5253	52.520	-398.02853	-5.54458	-594.25439	-1.99938	-1.33214	-421.34537	-711.04730	17.94824	-44.00971	-333.60483	15.81375	59.73261	-89.79110	668.08704	-812.66376	-223.11713	543.40472	-605.80347	-83.40424	548.03754	-535.67578	-621.43665	559.46149	184.77164	-495.88989	564.98755	249.10229	
5254	52.530	-399.44287	-5.41714	-594.11133	-2.02397	-0.86563	-420.95209	-711.76892	18.17161	-43.80517	-333.75931	15.71140	60.14116	-89.21702	667.80652	-811.89337	-223.83745	543.11737	-604.60944	-83.74311	548.13934	-535.14258	-620.35822	559.18695	186.21968	-494.53827	564.80774	250.19476	
5255	52.540	-400.18021	-5.58859	-594.01697	-4.23791	-1.48152	-421.50720	-712.36407	18.23600	-43.59054	-334.45108	15.47507	60.19920	-88.81107	667.64697	-811.59192	-224.18144	543.19971	-604.02124	-84.08408	548.03802	-534.64624	-619.17090	558.97943	187.59503	-493.15906	564.76642	251.36136	
5256	52.550	-401.12271	-5.12907	-593.88025	-4.28528	-1.15194	-421.18030	-713.42542	18.65732	-43.51145	-335.73877	15.11258	59.97168	-88.21004	667.41980	-811.19568	-224.11514	543.02808	-602.97046	-83.92731	547.86316	-533.97162	-618.38629	558.88562	188.96404	-492.71698	564.72119	252.64731	
5257	52.560	-401.95401	-4.77775	-593.72815	-5.88282	-1.21854	-420.92145	-714.19757	18.74214	-43.49272	-336.38159	15.14554	60.19333	-88.03950	667.24902	-810.92969	-223.83893	543.10181	-602.51080	-83.47380	547.72693	-533.05426	-617.73047	558.97961	190.18910	-491.92603	564.65717	253.95940	
5258	52.570	-402.90921	-4.41714	-593.80420	-5.21671	-0.79411	-420.19809	-715.26642	19.10397	-43.62257	-336.73602	15.04516	60.29219	-88.01668	667.20667	-810.81586	-223.70950	543.14093	-601.83618	-83.54752	547.45087	-532.07709	-617.35077	559.04083	191.04259	-491.53711	564.68787	254.80261	
5259	52.580	-403.52438	-4.24627	-593.73199	-6.57772	-1.02921	-420.32678	-716.24847	19.21804	-43.56022	-338.32077	14.55620	60.50803	-88.17572	667.00012	-810.60126	-223.03560	542.81458	-600.39075	-82.83720	547.31268	-530.95911	-617.07135	559.25421	192.05142	-491.55804	564.94318	256.05853	
5260	52.590	-404.33032	-3.94202	-593.63983	-8.25632	-1.62764	-420.23901	-716.94012	18.97979	-43.61975	-339.29379	14.60753	60.43236	-88.85602	666.76331	-810.46954	-222.71487	542.32715	-599.05878	-82.45266	546.98914	-530.00348	-616.99786	559.41400	192.78142	-491.45273	564.98590	256.75146	
5261	52.600	-404.29636	-1.70178	-591.95642	-9.55274	-2.20614	-420.34650	-718.00305	19.14707	-43.45425	-340.09189	14.41352	60.52090	-89.42805	666.66229	-810.33057	-221.76729	542.37079	-598.45984	-81.66618	546.89197	-528.73163	-617.04315	559.47729	193.57390	-491.47525	565.14050	257.55026	
5262	52.610	-405.11298	7.75958	-588.69763	-9.84449	-2.56044	-419.38171	-718.36731	19.33833	-43.48166	-340.78183	14.26417	60.65391	-90.24319	666.57782	-810.30157	-221.05275	541.53564	-597.25916	-80.85555	546.62878	-527.58453	-617.42609	559.43457	193.65913	-492.11389	565.38373	258.33734	
5263	52.620	-405.84427	18.29214	-585.44763	-10.44939	-2.50946	-419.09021	-718.93860	19.30454	-43.59058	-342.24548	14.31976	60.57721	-90.99284	666.57910	-810.25635	-219.85124	541.14355	-596.68268	-80.06728	546.21588	-526.64709	-617.85040	559.27338	193.73125	-492.71826	565.72394	258.51392	
5264	52.630	-406.59341	29.70552	-584.71118	-10.97896	-2.90878	-418.75854	-720.23364	19.53049	-43.71022	-343.37708	14.32548	60.59035	-91.92403	666.40698	-810.19049	-219.39192	540.08740	-595.81287	-79.32379	545.94519	-525.77893	-618.08270	559.30908	193.82883	-492.85104	565.76080	258.59137	
5265	52.640	-407.70587	41.81135	-588.26746	-12.15944	-3.26961	-418.92874	-720.95410	19.44027	-43.56436	-343.94022	14.51853	60.92741	-92.67899	666.14417	-810.00854	-218.89088	539.41986	-595.01361	-79.22128	545.66455	-525.20190	-618.28180	559.22717	194.12099	-493.16757	566.09772	258.91281	
5266	52.650	-407.43915	54.55869	-592.26080	-13.13135	-3.28046	-418.99213	-722.04535	19.74731	-43.47673	-344.99973	14.53111	60.94497	-93.98036	666.02075	-810.33624	-218.65482	539.43634	-595.08020	-79.24717	545.54535	-524.78687	-618.45892	559.18359	194.61131	-493.14703	565.84125	259.08304	
5267	52.660	-406.10260	66.21473	-596.50928	-13.69958	-2.29236	-418.56848	-722.54303	19.83688	-43.37855	-345.55914	14.32526	60.95552	-95.08926	665.86237	-810.41016	-219.15236	539.47192	-594.50403	-79.44781	545.60559	-524.34814	-618.64557	559.11035	194.91051	-492.60977	565.37988	259.11832	
5268	52.670	-405.04901	76.56073	-597.13446	-15.20921	-2.33233	-418.80673	-723.63678	19.98455	-43.08123	-346.57324	14.01453	61.01049	-96.12150	666.07788	-810.30518	-219.53015	539.29602	-593.87756	-80.20351	545.66760	-524.24982	-618.86542	558.89893	195.29642	-492.90518	565.17700	259.68695	
5269	52.680	-404.86139	86.06683	-595.77948	-16.22891	-2.29428	-419.09409	-724.63336	19.75931	-42.87782	-347.59283	13.85793	61.30408	-96.32172	666.09247	-810.14417	-220.22206	539.38257	-593.92834	-80.50154	545.77185	-524.13904	-619.08411	558.71844	195.63934	-492.95428	565.04102	260.01816	
5270	52.690	-404.40994	93.83428	-593.53180	-16.59084	-1.41900	-418.44443	-725.59399	19.57956	-42.82801	-348.47296	13.81468	61.25475	-96.31022	666.16211	-810.03015	-221.39284	539.54614	-594.05383	-81.29940	545.96973	-524.23950	-619.17035	558.56818	196.05595	-492.71802	564.95862	259.99554	
5271	52.700	-403.89145	100.75399	-592.63269	-18.48155	-1.53529	-419.00275	-726.62787	19.92853	-42.76896	-349.52216	13.71320	60.93442	-95.28385	666.07654	-809.58667	-222.69911	539.49304	-594.00867	-82.64864	546.32117	-524.76538	-619.27960	558.63177	196.53442	-493.14142	565.20734	260.39133	
5272	52.710	-401.93704	106.65251	-593.46442	-19.61892	-1.38538	-419.21927	-727.08667	20.01540	-42.44526	-350.26361	13.66509	60.92021	-92.95876	665.70667	-808.65521	-224.13174	540.16589	-594.93756	-83.99679	546.66858	-525.19098	-619.42633	558.83173	196.99907	-494.17215	565.98706	260.63559	
5273	52.720	-398.93231	110.76031	-595.53711	-20.42505	-1.04578	-419.51233	-728.09650	20.47730	-42.39972	-351.24164	13.59357	61.11985	-90.74685	665.93665	-807.89978	-225.60155	540.57831	-595.10413	-85.52888	546.79474	-525.65479	-619.81750	559.09210	197.36617	-494.36554	566.23669	260.77762	
5274	52.730	-396.22186	112.81824	-596.54004	-21.54637	-0.93813	-419.73868	-728.86591	20.45941	-42.26100	-352.14978	13.70135	61.33779	-88.82282	665.59100	-806.66919	-226.88762	540.86987	-595.26715	-86.36366	546.95978	-525.75909	-620.74695	559.22351	197.23915	-494.78467	566.33325	260.86517	
